<?xml version="1.0" encoding="UTF-8"?>
<svg xmlns="http://www.w3.org/2000/svg" xmlns:xlink="http://www.w3.org/1999/xlink" viewBox="0 0 20 20" width="20px" height="20px">
<g id="surface68001161">
<path style=" stroke:none;fill-rule:nonzero;fill:rgb(47.058824%,47.058824%,47.058824%);fill-opacity:1;" d="M 8.667969 2 C 4.992188 2 2 4.992188 2 8.667969 C 2 12.339844 4.992188 15.332031 8.667969 15.332031 C 10.265625 15.332031 11.730469 14.765625 12.882812 13.824219 L 16.863281 17.804688 C 17.027344 17.980469 17.277344 18.050781 17.511719 17.988281 C 17.746094 17.925781 17.925781 17.746094 17.988281 17.511719 C 18.050781 17.277344 17.980469 17.027344 17.804688 16.863281 L 13.824219 12.882812 C 14.765625 11.730469 15.332031 10.265625 15.332031 8.667969 C 15.332031 4.992188 12.339844 2 8.667969 2 Z M 8.667969 3.332031 C 11.621094 3.332031 14 5.714844 14 8.667969 C 14 11.621094 11.621094 14 8.667969 14 C 5.714844 14 3.332031 11.621094 3.332031 8.667969 C 3.332031 5.714844 5.714844 3.332031 8.667969 3.332031 Z M 8.667969 3.332031 "/>
</g>
</svg>
